<svg xmlns="http://www.w3.org/2000/svg" viewBox="0 0 18.94 20.68">
  <path d="M.3 14.64a1 1 0 0 0 .23 1.59l8 4.22a2 2 0 0 0 1.86 0l8-4.22a1 1 0 0 0 0-1.78l-8-4.22a2 2 0 0 0-1.86 0l-8 4.22a1 1 0 0 0-.24.18zm2.83.7L9.46 12l6.33 3.34-6.33 3.35z" fill="currentColor" fill-opacity=".4"/>
  <path d="M.3 9.64a1 1 0 0 0 .23 1.59l8 4.22a2 2 0 0 0 1.86 0l8-4.22a1 1 0 0 0 0-1.78l-8-4.22a2 2 0 0 0-1.86 0l-8 4.22a1 1 0 0 0-.24.18zm2.83.7L9.46 7l6.33 3.34-6.33 3.35z" fill="currentColor" fill-opacity=".6"/>
  <path d="M.3 4.64a1 1 0 0 0 .23 1.59l8 4.22a2 2 0 0 0 1.86 0l8-4.22a1 1 0 0 0 0-1.78l-8-4.22a2 2 0 0 0-1.86 0l-8 4.22a1 1 0 0 0-.24.18zm2.83.7L9.46 2l6.33 3.34-6.33 3.35z" fill="currentColor"/>
</svg>
