<svg xmlns="http://www.w3.org/2000/svg" viewBox="0 0 22 24.8571">
  <path d="M21.5007 5.8854A1 1 0 0 1 22 6.751l-.0002 11.4292c0 .3598-.1934.6919-.5063.8696l-9.9998 5.6769A1 1 0 0 1 10 23.857V12.502a1 1 0 0 1 .5015-.8669l10-5.751a.9999.9999 0 0 1 .9992.0012zM12 13.0806v9.0588l7.9998-4.5415L20 8.4797z" clip-rule="evenodd" fill="#de7973" fill-rule="evenodd"/>
  <path d="M10.5015.1331a.9998.9998 0 0 1 .997 0l10 5.7511a.9998.9998 0 0 1 .0001 1.7337l-9.9948 5.749a1.0003 1.0003 0 0 1-.9968.0002L.5018 7.6181a1 1 0 0 1-.0003-1.7339zm-7.495 6.6176l7.9984 4.5959 7.9894-4.5954L11 2.1536z" clip-rule="evenodd" fill="#de7973" fill-rule="evenodd"/>
  <path d="M.4991 5.8855a1 1 0 0 1 .9991-.0016l10.0052 5.749c.3105.1784.5019.5093.5018.8675L12 23.8574a1.0002 1.0002 0 0 1-1.4937.8693l-9.9998-5.677a1 1 0 0 1-.5063-.8695L0 6.751a1 1 0 0 1 .4991-.8655zm1.501 2.5934v9.119l8.0007 4.542.0041-9.0614z" clip-rule="evenodd" fill="#de7973" fill-rule="evenodd"/>
</svg>
