<?xml version="1.0" encoding="utf-8"?><svg xmlns="http://www.w3.org/2000/svg" xmlns:xlink="http://www.w3.org/1999/xlink"><symbol viewBox="0 0 13.52 7.51" id="angleDown" xmlns="http://www.w3.org/2000/svg"><path d="M.75 0a.75.75 0 0 0-.52 1.29l6 6a.75.75 0 0 0 1.06 0l6-6A.75.75 0 1 0 12.23.23L6.76 5.7 1.29.23A.75.75 0 0 0 .75 0z"/></symbol><symbol viewBox="0 0 7.51 13.52" id="angleLeft" xmlns="http://www.w3.org/2000/svg"><path d="M6.73 0a.75.75 0 0 0-.51.23l-6 6a.75.75 0 0 0 0 1.06l6 6a.75.75 0 1 0 1.06-1.06L1.81 6.76l5.47-5.47A.75.75 0 0 0 6.73 0z"/></symbol><symbol viewBox="0 0 13.52 7.51" id="angleUp" xmlns="http://www.w3.org/2000/svg"><path d="M6.75 0a.75.75 0 0 0-.52.22l-6 6a.75.75 0 1 0 1.06 1.06l5.47-5.47 5.47 5.47a.75.75 0 1 0 1.06-1.06l-6-6A.75.75 0 0 0 6.75 0z"/></symbol><symbol viewBox="0 0 12 10" id="caretDown" xmlns="http://www.w3.org/2000/svg"><path d="M6 10L0 0h12z"/></symbol><symbol viewBox="0 0 14.02 14.02" id="cross" xmlns="http://www.w3.org/2000/svg"><path d="M1 0a1 1 0 0 0-.7 1.72L5.6 7 .3 12.3a1 1 0 1 0 1.42 1.4L7 8.43l5.3 5.3a1 1 0 1 0 1.4-1.42l-5.27-5.3 5.3-5.3A1 1 0 1 0 12.3.32L7.01 5.6 1.71.3A1 1 0 0 0 1 0z"/></symbol><symbol viewBox="0 0 32 16" id="filter" xmlns="http://www.w3.org/2000/svg"><circle cx="8" cy="8" r="8" fill="#2f80ed"/><circle cx="8" cy="8" r="8" transform="translate(16)" fill="#27ae60"/><circle cx="8" cy="8" r="8" transform="translate(8)" fill="#f48068"/></symbol><symbol viewBox="0 0 18.94 20.68" id="layers" xmlns="http://www.w3.org/2000/svg"><path d="M.3 14.64a1 1 0 0 0 .23 1.59l8 4.22a2 2 0 0 0 1.86 0l8-4.22a1 1 0 0 0 0-1.78l-8-4.22a2 2 0 0 0-1.86 0l-8 4.22a1 1 0 0 0-.24.18zm2.83.7L9.46 12l6.33 3.34-6.33 3.35z" fill="currentColor" fill-opacity=".4"/><path d="M.3 9.64a1 1 0 0 0 .23 1.59l8 4.22a2 2 0 0 0 1.86 0l8-4.22a1 1 0 0 0 0-1.78l-8-4.22a2 2 0 0 0-1.86 0l-8 4.22a1 1 0 0 0-.24.18zm2.83.7L9.46 7l6.33 3.34-6.33 3.35z" fill="currentColor" fill-opacity=".6"/><path d="M.3 4.64a1 1 0 0 0 .23 1.59l8 4.22a2 2 0 0 0 1.86 0l8-4.22a1 1 0 0 0 0-1.78l-8-4.22a2 2 0 0 0-1.86 0l-8 4.22a1 1 0 0 0-.24.18zm2.83.7L9.46 2l6.33 3.34-6.33 3.35z" fill="currentColor"/></symbol><symbol viewBox="0 0 15 2" id="minus" xmlns="http://www.w3.org/2000/svg"><rect width="15" height="2" rx="1"/></symbol><symbol viewBox="0 0 15 15" id="plus" xmlns="http://www.w3.org/2000/svg"><path d="M8.5 1a1 1 0 0 0-2 0v5.5H1a1 1 0 0 0 0 2h5.5V14a1 1 0 0 0 2 0V8.5H14a1 1 0 0 0 0-2H8.5z"/></symbol><symbol viewBox="0 0 18 18" id="position" xmlns="http://www.w3.org/2000/svg"><path d="M16 9A7 7 0 1 1 2 9a7 7 0 0 1 14 0zm2 0A9 9 0 1 1 0 9a9 9 0 0 1 18 0zm-9 4a4 4 0 1 0 0-8 4 4 0 0 0 0 8z" clip-rule="evenodd" fill-rule="evenodd"/></symbol><symbol viewBox="0 0 15.193 15.193" id="tags" xmlns="http://www.w3.org/2000/svg"><path d="M14.629 7.658a2 2 0 0 0-.022-2.807L10.342.586A2 2 0 0 0 7.535.564L.608 7.282A2 2 0 0 0 0 8.718v4.475a2 2 0 0 0 2 2h4.476a2 2 0 0 0 1.435-.608zM3.5 13.193a1.5 1.5 0 1 0 0-3 1.5 1.5 0 0 0 0 3z" clip-rule="evenodd" fill-rule="evenodd"/></symbol><symbol viewBox="0 0 22 24.857" id="tokenBox" xmlns="http://www.w3.org/2000/svg"><path d="M21.5 5.885a1 1 0 0 1 .5.866v11.43a1 1 0 0 1-.506.869l-10 5.677a1 1 0 0 1-1.494-.87V12.502a1 1 0 0 1 .501-.867l10-5.75a1 1 0 0 1 1 0zM12 13.081v9.058l8-4.541V8.48z" clip-rule="evenodd" fill="#de7973" fill-rule="evenodd"/><path d="M10.502.133a1 1 0 0 1 .996 0l10 5.751a1 1 0 0 1 0 1.734l-9.994 5.749a1 1 0 0 1-.997 0L.502 7.618a1 1 0 0 1 0-1.734zM3.005 6.751l7.999 4.596 7.99-4.596L11 2.154z" clip-rule="evenodd" fill="#de7973" fill-rule="evenodd"/><path d="M.5 5.886a1 1 0 0 1 .998-.002l10.005 5.749a1 1 0 0 1 .502.867L12 23.857a1 1 0 0 1-1.494.87l-10-5.677A1 1 0 0 1 0 18.18V6.751a1 1 0 0 1 .5-.865zM2 8.479v9.119l8 4.542.005-9.062z" clip-rule="evenodd" fill="#de7973" fill-rule="evenodd"/></symbol></svg>