<svg width="36" height="36" viewBox="0 0 36 36" fill="none" xmlns="http://www.w3.org/2000/svg">
<g filter="url(#filter0_d)">
<path fill-rule="evenodd" clip-rule="evenodd" d="M14.6289 7.65802C15.3896 6.87359 15.3799 5.62408 14.6074 4.85138L10.3418 0.585753C9.56909 -0.186708 8.31958 -0.196473 7.53516 0.564269L0.607666 7.2818C0.219238 7.65851 0 8.17657 0 8.71759V13.1932C0 14.2977 0.895508 15.1932 2 15.1932H6.47559C7.0166 15.1932 7.53467 14.9739 7.91138 14.5855L14.6289 7.65802ZM3.5 13.1932C4.32837 13.1932 5 12.5215 5 11.6932C5 10.8648 4.32837 10.1932 3.5 10.1932C2.67163 10.1932 2 10.8648 2 11.6932C2 12.5215 2.67163 13.1932 3.5 13.1932Z" transform="translate(10 6.80688)" fill="currentColor"/>
</g>
<defs>
<filter id="filter0_d" x="0" y="0.806885" width="35.1932" height="35.1932" filterUnits="userSpaceOnUse" color-interpolation-filters="sRGB">
<feFlood flood-opacity="0" result="BackgroundImageFix"/>
<feColorMatrix in="SourceAlpha" type="matrix" values="0 0 0 0 0 0 0 0 0 0 0 0 0 0 0 0 0 0 255 0"/>
<feOffset dy="4"/>
<feGaussianBlur stdDeviation="5"/>
<feColorMatrix type="matrix" values="0 0 0 0 0 0 0 0 0 0 0 0 0 0 0 0 0 0 0.25 0"/>
<feBlend mode="normal" in2="BackgroundImageFix" result="effect1_dropShadow"/>
<feBlend mode="normal" in="SourceGraphic" in2="effect1_dropShadow" result="shape"/>
</filter>
</defs>
</svg>
