<svg width="22" height="25" viewBox="0 0 22 25" fill="none" xmlns="http://www.w3.org/2000/svg">
<path fill-rule="evenodd" clip-rule="evenodd" d="M11.5007 0.1344C11.8097 0.313147 12 0.64305 12 1.00002L11.9998 12.4292C11.9998 12.789 11.8064 13.1211 11.4935 13.2988L1.49369 18.9757C1.18413 19.1514 0.804486 19.1494 0.496857 18.9703C0.189228 18.7912 0 18.462 0 18.1061V6.75111C0 6.39324 0.191235 6.06265 0.501457 5.88424L10.5015 0.133135C10.8109 -0.0448291 11.1917 -0.0443471 11.5007 0.1344ZM2 7.32958V16.3884L9.9998 11.8469L9.99997 2.72871L2 7.32958Z" transform="translate(10 5.75098)" fill="#DE7973"/>
<path fill-rule="evenodd" clip-rule="evenodd" d="M10.5015 0.133135C10.8101 -0.0443784 11.1899 -0.0443784 11.4985 0.133135L21.4985 5.88424C21.8088 6.06265 22 6.39322 22 6.75108C22 7.10893 21.8088 7.43952 21.4986 7.61794L11.5038 13.3669C11.1952 13.5443 10.8156 13.5444 10.507 13.3671L0.501793 7.61817C0.191442 7.43984 6.9339e-05 7.10924 1.88061e-08 6.7513C-6.92418e-05 6.39337 0.191175 6.06269 0.501457 5.88424L10.5015 0.133135ZM3.00652 6.75072L11.0049 11.3466L18.9943 6.75117L11 2.15358L3.00652 6.75072Z" fill="#DE7973"/>
<path fill-rule="evenodd" clip-rule="evenodd" d="M0.499097 0.134496C0.807995 -0.0442753 1.18876 -0.0448676 1.49821 0.132942L11.5034 5.88187C11.8139 6.06032 12.0053 6.39122 12.0052 6.74939L12 18.1065C11.9998 18.4624 11.8105 18.7914 11.5029 18.9704C11.1953 19.1494 10.8158 19.1514 10.5063 18.9757L0.506492 13.2988C0.193548 13.1211 0.000191748 12.789 0.000185907 12.4292L1.34535e-10 1.00002C-5.84112e-06 0.643117 0.1902 0.313268 0.499097 0.134496ZM2.00003 2.72794L2.00018 11.8469L10.0008 16.3889L10.0049 7.32751L2.00003 2.72794Z" transform="translate(0 5.75098)" fill="#DE7973"/>
</svg>
